<?xml version="1.0" encoding="UTF-8"?>
<svg id="Camada_1" xmlns="http://www.w3.org/2000/svg" viewBox="0 0 250 250">
  <defs>
    <style>
      .cls-1 {
        fill: #6f6e73;
      }
    </style>
  </defs>
  <g>
    <g>
      <path class="cls-1" d="M155.62,129.07c0-5.74,4.07-9.63,9.38-9.63,3.17,0,5.27,1.17,6.65,2.94v-.62c0-1.06.86-1.93,1.93-1.93h0c1.06,0,1.93.86,1.93,1.93v16.75s-3.85,0-3.85,0v-2.55c-1.38,1.77-3.48,2.94-6.65,2.94-5.31,0-9.38-4.09-9.38-9.82ZM165.46,122.9c-3.6,0-5.99,2.72-5.99,6.17s2.39,6.36,5.99,6.36,6.17-2.92,6.17-6.36-2.59-6.17-6.17-6.17Z"/>
      <path class="cls-1" d="M202.44,127.18h3.44l4.23-6.55c.33-.5.88-.81,1.48-.81h0c1.41,0,2.25,1.56,1.48,2.74l-4.15,6.31,6.96,9.63h-4.4s-5.72-8.05-5.72-8.05h-3.33v8.05h-3.85s0-25.47,0-25.47c0-1.06.86-1.93,1.93-1.93h0c1.06,0,1.93.86,1.93,1.93v14.14Z"/>
      <path class="cls-1" d="M137.5,135.95v2.55s-3.85,0-3.85,0v-25.47c0-1.06.86-1.93,1.93-1.93h0c1.06,0,1.93.86,1.93,1.93v9.34c1.38-1.77,3.48-2.94,6.65-2.94,5.31,0,9.38,3.89,9.38,9.63s-4.07,9.82-9.38,9.82c-3.17,0-5.27-1.17-6.65-2.94ZM143.68,135.43c3.6,0,5.99-2.92,5.99-6.36s-2.39-6.17-5.99-6.17-6.17,2.72-6.17,6.17,2.57,6.36,6.17,6.36Z"/>
      <path class="cls-1" d="M187.09,119.44c-.1,0,.23,0,0,0s.1,0,0,0c-5.14,0-8.4,3.19-8.4,7.72v11.34h3.85v-10.52c0-3.08,1.68-4.86,4.55-4.88,2.87.02,4.55,1.8,4.55,4.88v10.52h3.85v-11.34c0-4.53-3.26-7.72-8.4-7.72Z"/>
    </g>
    <g>
      <path class="cls-1" d="M94.17,119.44c-3.17,0-5.27,1.17-6.65,2.94v-9.34c0-1.06-.86-1.93-1.93-1.93s-1.93.86-1.93,1.93v25.47h3.85v-2.55c1.38,1.77,3.48,2.94,6.65,2.94,5.31,0,9.38-4.09,9.38-9.82s-4.07-9.63-9.38-9.63ZM93.71,135.43c-3.6,0-6.17-2.92-6.17-6.36s2.59-6.17,6.17-6.17,5.99,2.72,5.99,6.17-2.39,6.36-5.99,6.36Z"/>
      <path class="cls-1" d="M124.49,128.89c-.05-.81-.71-1.46-1.53-1.46h-4.34c-.86,0-1.55.69-1.55,1.55s.7,1.55,1.55,1.55h2.76c-.67,2.74-3.09,4.78-6.01,4.78-3.43,0-5.87-2.81-5.87-6.28s2.44-6.28,5.87-6.28c1.19,0,2.69.31,4.12,1.15.72.42,1.61.23,2.19-.36.76-.78.62-2.08-.31-2.66-2.4-1.47-4.08-1.71-6-1.71-5.38,0-9.73,4.41-9.73,9.85s4.36,9.85,9.73,9.85c2.28,0,4.37-.8,6.03-2.12v1.74h3.1v-9.61h-.02Z"/>
    </g>
  </g>
  <g>
    <path class="cls-1" d="M59.55,125h0s.87-.87.87-.87l2.43-2.43c1.82-1.82,1.82-4.78,0-6.6l-9.91-9.91c-1.82-1.82-4.78-1.82-6.6,0l-11.5,11.5c-.88.88-.98,2.31-.16,3.25.9,1.02,2.46,1.06,3.41.11l11.56-11.56,9.91,9.91-6.6,6.6-4.96,4.96c-.91.91-.91,2.39,0,3.3h0c.91.91,2.39.91,3.3,0l4.95-4.95h0s1.96,1.96,1.96,1.96l1.34,1.34h0s-9.91,9.91-9.91,9.91h0s-9.91-9.91-9.91-9.91l11.59-11.59c.91-.91.91-2.39,0-3.3-.91-.91-2.39-.91-3.3,0l-11.59,11.59c-1.82,1.82-1.82,4.78,0,6.6l9.91,9.91c1.82,1.82,4.78,1.82,6.6,0l9.91-9.91c1.82-1.82,1.82-4.78,0-6.6l-3.3-3.3Z"/>
    <g>
      <path class="cls-1" d="M62.86,115.09l-9.91-9.91c-1.82-1.82-4.78-1.82-6.6,0l-11.5,11.5c-.88.88-.98,2.31-.16,3.25.9,1.02,2.46,1.06,3.41.11l11.56-11.56,9.91,9.91-6.6,6.6-4.96,4.96c-.91.91-.91,2.39,0,3.3h0c.91.91,2.39.91,3.3,0l4.95-4.95h0s4.17-4.17,4.17-4.17l2.43-2.43c1.82-1.82,1.82-4.78,0-6.6Z"/>
      <path class="cls-1" d="M59.55,125h0s-3.3,3.3-3.3,3.3l1.96,1.96,1.34,1.34h0s-9.91,9.91-9.91,9.91h0s-9.91-9.91-9.91-9.91l11.59-11.59c.91-.91.91-2.39,0-3.3-.91-.91-2.39-.91-3.3,0l-11.59,11.59c-1.82,1.82-1.82,4.78,0,6.6l9.91,9.91c1.82,1.82,4.78,1.82,6.6,0l9.91-9.91c1.82-1.82,1.82-4.78,0-6.6l-3.3-3.3Z"/>
    </g>
  </g>
</svg>