<?xml version="1.0" encoding="UTF-8"?>
<svg id="Camada_1" xmlns="http://www.w3.org/2000/svg" viewBox="0 0 250 250">
  <defs>
    <style>
      .cls-1 {
        fill: #6f6e73;
      }
    </style>
  </defs>
  <g>
    <path class="cls-1" d="M120.79,113.24c-6.98,0-12.04,4.94-12.04,11.76s5.06,11.76,12.04,11.76,12.04-4.94,12.04-11.76-5.06-11.76-12.04-11.76ZM120.79,133.48c-4.94,0-8.39-3.49-8.39-8.48s3.45-8.48,8.39-8.48,8.39,3.49,8.39,8.48-3.45,8.48-8.39,8.48Z"/>
    <path class="cls-1" d="M216.23,125c0-6.92-4.91-11.76-11.95-11.76s-12.04,4.94-12.04,11.76,5.06,11.76,12.04,11.76c4.88,0,8.85-2.31,10.73-6.23h-4.04c-1.43,1.99-3.62,2.95-6.69,2.95-4.39,0-7.53-2.6-8.2-6.77l-.08-.49h20.22v-1.22ZM196.11,123.08l.13-.52c.92-3.78,3.93-6.04,8.05-6.04s7.2,2.31,8.09,6.04l.13.52h-16.4Z"/>
    <polygon class="cls-1" points="159.11 113.75 149.94 132.6 140.77 113.75 140.76 113.75 136.6 113.75 134.39 113.75 134.39 116.26 136.6 116.26 136.6 136.25 140.02 136.25 140.06 119.15 148.37 136.25 151.51 136.25 159.82 119.15 159.86 136.25 163.29 136.25 163.29 113.75 159.11 113.75"/>
    <path class="cls-1" d="M106.34,113.75h-2.75v2.87c-2.12-2.13-5.16-3.37-8.65-3.37-6.98,0-12.04,4.95-12.04,11.76s5.06,11.76,12.04,11.76c5.61,0,10.03-3.18,11.4-8.15h-3.67c-1.29,3.06-4.16,4.87-7.74,4.87-4.94,0-8.39-3.49-8.39-8.48s3.45-8.48,8.39-8.48c3.58,0,6.45,1.82,7.74,4.87h3.67s0-.01,0-.02h0v-7.62Z"/>
    <path class="cls-1" d="M179.32,113.75h-12.45v2.51h2.2v19.99h3.39v-7.2h6.86c6.38,0,10.19-2.79,10.19-7.46,0-3.79-2.68-7.85-10.19-7.85ZM180.43,126.09h-7.97v-8.97h7.97c5,0,5.64,2.39,5.64,4.47,0,2.98-1.9,4.5-5.64,4.5Z"/>
  </g>
  <g>
    <path class="cls-1" d="M48.83,140.06v-30.12c-8.32,0-15.06,6.74-15.06,15.06s6.74,15.06,15.06,15.06Z"/>
    <path class="cls-1" d="M54.29,127.73h12.33c0,6.81-5.53,12.33-12.33,12.33h0v-12.33h0Z" transform="translate(120.92 267.79) rotate(180)"/>
    <path class="cls-1" d="M54.29,109.94h12.33c0,6.81-5.53,12.33-12.33,12.33h0v-12.33h0Z" transform="translate(176.57 55.65) rotate(90)"/>
  </g>
</svg>