<?xml version="1.0" encoding="UTF-8"?>
<svg id="Camada_1" xmlns="http://www.w3.org/2000/svg" viewBox="0 0 250 250">
  <defs>
    <style>
      .cls-1 {
        fill: #6f6e73;
      }
    </style>
  </defs>
  <path class="cls-1" d="M102.07,120.52c2.79-3,4.38-7.12,4.02-11.61-.6-7.48-6.7-13.48-14.19-13.96-4.25-.27-8.16,1.2-11.07,3.77l-3.8,3.8h0s0,0,0,0h0s0,0,0,0l-3.8-3.8c-2.92-2.57-6.82-4.04-11.07-3.77-7.49.48-13.59,6.48-14.19,13.96-.36,4.49,1.24,8.61,4.02,11.61l3.51,3.53-4.3,4.31,2.15,2.15c1.19,1.19,3.11,1.19,4.29,0l1.07-1.07,1.09-1.09,15.08,15.08c.59.59,1.37.89,2.15.89h0c.78,0,1.55-.3,2.15-.89l15.08-15.08,1.09,1.09,1.07,1.07c1.19,1.19,3.11,1.19,4.29,0l2.15-2.15-4.3-4.31,3.51-3.53ZM56.71,116.6c-.41-.41-.79-.86-1.11-1.35-.98-1.46-1.56-3.21-1.56-5.1,0-2.52,1.02-4.8,2.67-6.45.02-.02.04-.04.06-.05.34-.34.72-.65,1.11-.93,1.49-1.06,3.31-1.69,5.28-1.69,2.2,0,4.23.78,5.81,2.08.23.19.44.38.65.59l3.12,3.12-12.94,12.94-3.09-3.15ZM77.03,136.98l-12.94-12.94,4.19-4.19,8.74-8.74,8.74,8.74,4.19,4.19-12.94,12.94ZM97.35,116.6l-3.09,3.15-12.94-12.94,3.12-3.12c.21-.21.42-.4.65-.59,1.58-1.3,3.61-2.08,5.81-2.08,1.97,0,3.79.63,5.28,1.69.39.28.77.59,1.11.93.02.02.04.03.06.05,1.65,1.65,2.67,3.93,2.67,6.45,0,1.89-.57,3.64-1.56,5.1-.33.49-.7.94-1.11,1.35Z"/>
  <g>
    <g>
      <g>
        <path class="cls-1" d="M123.31,117.02c0-7.53,5.33-12.64,12.3-12.64,4.16,0,6.92,1.53,8.73,3.86v-10.75c0-1.42,1.15-2.57,2.57-2.57h2.48v31.91c0,1.42-1.15,2.57-2.57,2.57h-2.48v-3.34c-1.81,2.32-4.57,3.86-8.73,3.86-6.97,0-12.3-5.36-12.3-12.89ZM136.23,108.93c-4.72,0-7.86,3.57-7.86,8.09s3.14,8.35,7.86,8.35,8.09-3.83,8.09-8.35-3.39-8.09-8.09-8.09Z"/>
        <path class="cls-1" d="M182.81,128.88l13.25-28.89h-16.92v-2.5c0-1.42,1.15-2.57,2.57-2.57h20.37v4.7l-12.69,27.78c-.42.91-1.33,1.5-2.34,1.5h-4.25Z"/>
        <path class="cls-1" d="M175.36,104.9s0,0,0,0c-1.26,0-1.27,1.27-1.27,1.27v2.07c-1.81-2.32-4.57-3.86-8.73-3.86-6.97,0-12.3,5.11-12.3,12.64s5.33,12.89,12.3,12.89c4.16,0,7.02-1.63,8.73-3.86v2.07c0,4.54-3.39,7.4-8.81,7.4-2.99,0-6.41-.76-9.01-2.04l-.43,2.57c-.2,1.21.47,2.44,1.63,2.84,2.26.77,5.18,1.23,7.94,1.23,8.42,0,13.73-4.7,13.73-12.12v-23.1h-3.78ZM165.97,125.37c-4.72,0-7.86-3.83-7.86-8.35s3.14-8.09,7.86-8.09,8.09,3.57,8.09,8.09-3.37,8.35-8.09,8.35Z"/>
      </g>
      <g>
        <g>
          <path class="cls-1" d="M139.27,146c0-.53.37-.89.89-.89s.9.37.9.89-.37.89-.9.89-.89-.37-.89-.89ZM139.43,154.82v-7.03h1.45v7.03h-1.45Z"/>
          <path class="cls-1" d="M148.41,148.95c.42-.69,1.3-1.31,2.51-1.31,1.87,0,2.88,1.2,2.88,2.91v4.27h-1.46v-3.96c0-1.16-.62-1.84-1.65-1.84s-1.87.64-1.9,1.75v4.05h-1.46v-3.96c0-1.16-.62-1.84-1.65-1.84s-1.9.67-1.9,1.84v3.96h-1.46v-7.03h1.46v.89c.23-.36.89-1.03,2.13-1.03s2.06.5,2.5,1.31Z"/>
          <path class="cls-1" d="M158.41,147.64c2.14,0,3.73,1.6,3.73,3.66s-1.6,3.66-3.73,3.66-3.73-1.6-3.73-3.66,1.6-3.66,3.73-3.66ZM158.41,153.6c1.33,0,2.28-1,2.28-2.3s-.96-2.3-2.28-2.3-2.28,1-2.28,2.3.96,2.3,2.28,2.3Z"/>
          <path class="cls-1" d="M167.74,147.79h1.56l-2.77,7.03h-1.73l-2.77-7.03h1.56l2.07,5.61,2.07-5.61Z"/>
          <path class="cls-1" d="M175.88,154.28c-.81.46-1.7.69-2.68.69-2.37,0-4-1.49-4-3.66s1.52-3.66,3.62-3.66c2.28,0,3.76,1.9,3.34,4.19h-5.47c.26,1.15,1.15,1.79,2.51,1.79.82,0,1.52-.21,2.46-.66l.22,1.32ZM174.84,150.67c-.1-1.02-.83-1.71-1.98-1.71s-2.02.69-2.13,1.71h4.11Z"/>
          <path class="cls-1" d="M177.02,146.07c0-.53.37-.89.89-.89s.9.37.9.89-.37.89-.9.89-.89-.37-.89-.89ZM177.19,154.82v-7.03h1.45v7.03h-1.45Z"/>
          <path class="cls-1" d="M183.05,150.75c1.43.29,2.19.89,2.19,2.12,0,1.42-1.16,2.1-2.86,2.1-1.07,0-2.06-.2-2.67-.53l.18-1.25c.72.32,1.62.51,2.4.51,1.05,0,1.54-.26,1.54-.81,0-.48-.38-.73-1.29-.92l-1.04-.21c-1.24-.25-1.9-.96-1.9-2.04,0-1.19,1.17-2.07,2.93-2.07.86,0,1.78.17,2.37.42l-.15,1.26c-.57-.25-1.41-.41-2.14-.41-1.06,0-1.59.3-1.59.82,0,.44.33.66,1.22.84l.82.17Z"/>
        </g>
        <path class="cls-1" d="M160.88,146.9h-2.46l.49-.83c.14-.24.39-.39.67-.39h2.5l-.54.85c-.14.23-.39.37-.66.37Z"/>
      </g>
    </g>
    <g>
      <g>
        <polygon class="cls-1" points="58.71 129.42 59.8 128.34 59.8 128.34 58.71 129.42"/>
        <path class="cls-1" d="M89.78,145.63v3.05h-25.5v-3.05c0-1.68-1.36-3.04-3.04-3.04h-3.05v9.79c0,1.32,1.07,2.39,2.39,2.39h32.9c1.32,0,2.39-1.07,2.39-2.39v-9.79h-3.05c-1.68,0-3.04,1.36-3.04,3.04Z"/>
        <path class="cls-1" d="M89.97,124.04l-12.94,12.94-12.94-12.94-4.29,4.29,15.08,15.08c1.19,1.19,3.11,1.19,4.29,0l15.08-15.08"/>
        <path class="cls-1" d="M56.71,116.6c-1.65-1.65-2.67-3.93-2.67-6.45,0-5.04,4.08-9.12,9.12-9.12,2.52,0,4.81,1.02,6.46,2.67l3.12,3.12,4.29-4.29-3.8-3.8c-2.92-2.57-6.82-4.04-11.07-3.77-7.49.48-13.59,6.48-14.19,13.96-.36,4.49,1.24,8.61,4.02,11.61l3.51,3.53,4.29-4.29-3.09-3.15Z"/>
        <path class="cls-1" d="M97.35,116.6c1.65-1.65,2.67-3.93,2.67-6.45,0-5.04-4.08-9.12-9.12-9.12-2.52,0-4.81,1.02-6.46,2.67l-3.12,3.12-4.29-4.29,3.8-3.8c2.92-2.57,6.82-4.04,11.07-3.77,7.49.48,13.59,6.48,14.19,13.96.36,4.49-1.24,8.61-4.02,11.61l-3.51,3.53-4.29-4.29,3.09-3.15Z"/>
      </g>
      <path class="cls-1" d="M100.71,130.5l2.15-2.15-8.6-8.6h0l-5.69-5.69-11.54-11.54-4.29,4.29h0l-12.94,12.94h0l-4.29,4.29h0l-4.31,4.31,2.15,2.15c1.19,1.19,3.11,1.19,4.29,0l1.07-1.07,1.09-1.09h0l4.29-4.29h0l4.19-4.19,8.74-8.74h0s0,0,0,0h0s0,0,0,0h0s10.27,10.27,10.27,10.27l7.51,7.51,1.61,1.61c1.19,1.19,3.11,1.19,4.29,0Z"/>
      <rect class="cls-1" x="91.22" y="120.92" width="6.07" height="6.24" transform="translate(115.32 -30.32) rotate(45)"/>
    </g>
  </g>
</svg>