<?xml version="1.0" encoding="UTF-8"?>
<svg id="Camada_1" xmlns="http://www.w3.org/2000/svg" viewBox="0 0 250 250">
  <defs>
    <style>
      .cls-1 {
        fill: #6f6e73;
      }
    </style>
  </defs>
  <path class="cls-1" d="M59.16,132.36l-5.82-4.01c-1.31-.91-2.12-1.7-2.05-2.86.08-1.74,1.65-2.95,3.83-2.95,2.51,0,4.13,1.4,4.13,3.56,0,.09.07.17.17.17h.29c.09,0,.16-.07.17-.16l.4-4.76c0-.05-.01-.1-.04-.14-.03-.04-.08-.06-.12-.06h-1.9c-1.41-.19-3.21-.33-4.17-.33-3.78,0-6.31,2.24-6.58,5.83-.22,2.37.81,4.44,2.99,5.98l5.31,3.74c1.77,1.25,2.37,2.05,2.36,3.2,0,2.03-1.63,3.42-4.05,3.47h-.12c-1.68,0-3.17-.63-4.17-1.79-.95-1.09-1.41-2.55-1.3-4.12,0-.05-.01-.1-.04-.13-.03-.04-.08-.06-.12-.06h-.27c-.06,0-.11.03-.14.08-.79,1.4-1.29,4.18-.73,5.66,0,.02.02.04.03.06,1.12,1.23,3.68,2.02,6.53,2.02,4.96,0,8.03-2.57,8.22-6.87.12-2.33-.8-4.13-2.81-5.53"/>
  <path class="cls-1" d="M75.12,121.28l-10.17.05s-.09.02-.12.05c-.03.03-.05.08-.05.13v.32c0,.1.08.17.17.17h.38c.98,0,1.79.75,1.79,1.68l.1,18.12c-.01,1.03-.81,1.87-1.78,1.87h-.39c-.09,0-.16.08-.16.18v.32s.02.09.05.12c.03.04.07.06.12.06l9.27-.05s.09-.02.12-.05c.03-.03.05-.08.05-.13v-.32c0-.1-.08-.17-.17-.17h-.39c-.97,0-1.77-.82-1.8-1.85l-.1-18.77h1.87c2.27-.02,3.68,1.61,3.79,4.37.03.61-.04,1.36-.17,1.89-.82,3.22-3.31,3.58-4.34,3.59-.07,0-.12,0-.2,0-.07,0-.13.04-.16.11,0,.02-.01.05-.01.07v.31c0,.06.03.11.08.14,1.14.79,2.43,1.2,3.74,1.19,1.73,0,3.4-.77,4.58-2.08,1.18-1.31,1.78-3.08,1.71-4.99-.14-4.05-2.98-6.36-7.79-6.33"/>
  <path class="cls-1" d="M174.86,121.28h-9.25s-.09.02-.12.06c-.03.03-.05.08-.05.12v.32c0,.1.08.17.17.17h.56c.93,0,1.7.8,1.72,1.79v12.4l-15.11-15.3s-.07-.05-.12-.05h-.3c-.05,0-.1.02-.13.07-.03.04-.04.1-.03.15,0,.02.35,1.65.35,4.01v16.83c-.02.99-.79,1.79-1.72,1.79h-.56c-.09,0-.16.08-.17.17v.33s.01.09.04.12c.03.04.07.05.12.05h9.24s.09-.02.12-.05c.03-.03.05-.08.05-.12v-.33c0-.09-.08-.17-.17-.17h-.56c-.93,0-1.69-.8-1.71-1.78v-12.44l15.13,15.3s.07.05.12.05h.27c.05,0,.1-.03.13-.07.03-.04.04-.1.03-.15,0-.01-.35-1.7-.35-4.09v-16.73c.03-.99.78-1.77,1.72-1.77h.56c.09,0,.16-.08.17-.17v-.33s-.01-.09-.04-.12c-.04-.04-.08-.06-.12-.06"/>
  <path class="cls-1" d="M197.85,134.5h-.26c-.08,0-.15.06-.16.15-.9,6.04-3.11,8.39-7.86,8.4-4.46-.13-7.24-4.1-7.24-10.36s2.92-10.15,7.63-10.15c3.58,0,5.92,1.96,6.92,5.82.02.08.08.13.16.13h.25s.09-.02.12-.05c.03-.04.05-.08.05-.13l-.06-5.56c0-.06-.04-.12-.09-.15-1.2-.66-3.8-1.78-7.66-1.78-7.79,0-12.63,4.57-12.63,11.93s4.65,11.79,12.14,11.98v2.97l2.5-.88v-2.22c3.71-.55,5.63-2.55,6.61-4.26.02-.03.02-.07.02-.1l-.29-5.57c0-.09-.08-.17-.16-.17"/>
  <path class="cls-1" d="M44.22,137.35h-.31c-.07,0-.14.05-.16.12-.98,3.34-2.99,5.1-5.81,5.1h-3.84v-8.76h3.91c1.39.05,2.39,1.14,2.39,2.6v.28c0,.1.07.18.16.18h.3s.09-.02.12-.05c.03-.03.05-.08.05-.12v-7.49s-.02-.09-.05-.12c-.03-.03-.07-.06-.12-.05h-.3c-.09,0-.16.08-.16.18v.28c0,1.48-1.02,2.57-2.42,2.6h-3.88v-9.07h4.96c1.74.08,2.82,1.28,2.82,3.13v.38c0,.1.07.18.16.18h.31s.09-.01.12-.05c.03-.03.05-.08.05-.12v-5.66c0-.06-.03-.11-.08-.15-.05-.03-.1-.04-.15-.02-.56.25-2.31.56-3.58.58h-11.69s-.09.02-.12.05c-.03.03-.05.08-.05.13v.32c0,.1.08.17.17.17h.39c.94,0,1.72.78,1.79,1.76l-.02,18.55s-.06.64.38,1.36c.39.64,1.54.68,1.54.68h11.72c.08,0,.14-.06.16-.14l1.41-6.61c0-.05,0-.11-.03-.15-.03-.04-.08-.07-.13-.07"/>
  <path class="cls-1" d="M101.45,137.35h-.3c-.07,0-.14.05-.16.12-.98,3.34-2.99,5.1-5.81,5.1h-3.84v-8.76h3.91c1.39.05,2.39,1.14,2.39,2.6v.28c0,.1.07.18.17.18h.3s.09-.02.12-.05c.03-.03.05-.08.05-.12v-7.49s-.02-.09-.05-.12c-.03-.03-.07-.06-.12-.05h-.3c-.09,0-.17.08-.17.18v.28c0,1.48-1.01,2.57-2.42,2.6h-3.88v-9.07h4.96c1.75.08,2.83,1.28,2.82,3.13v.38c0,.1.07.18.16.18h.31s.09-.01.12-.05c.03-.03.05-.08.05-.12v-5.66c0-.06-.03-.11-.08-.15-.05-.03-.1-.04-.16-.02-.56.25-2.32.56-3.58.58h-11.69s-.09.02-.12.05c-.03.03-.05.08-.05.13v.32c0,.1.08.17.17.17h.39c.94,0,1.72.78,1.78,1.76l-.02,18.55s-.06.64.38,1.36c.39.64,1.54.68,1.54.68h11.72c.08,0,.14-.06.16-.14l1.41-6.61c.01-.05,0-.11-.03-.15-.03-.04-.08-.07-.13-.07"/>
  <path class="cls-1" d="M222.97,143.63h-.25c-.98,0-1.9-.67-2.45-1.78l-9.07-21.12c-.03-.06-.08-.1-.15-.1h-.28c-.08,0-.16.07-.17.16-.06.79-1,3.08-1.48,4.19l-7.05,16.92c-.64,1.28-1.67,1.73-2.42,1.73h-.27c-.09,0-.17.08-.17.18v.33c0,.09.07.18.17.18h6.54c.09,0,.17-.08.17-.18v-.32c0-.1-.07-.18-.17-.18h-.27c-.39,0-.78-.2-.98-.52-.21-.34-.23-.77-.03-1.26l1.41-3.62h0l.89-2.25,2.77-7.05,2.74,7.31h-3.93s-.62-.03-.92.71c-.05.13-.35,1-.35,1h5.85l1.46,3.89c.18.5.16.94-.06,1.28-.2.32-.57.51-.96.51h-.27c-.09,0-.16.08-.16.18v.32c0,.1.07.18.16.18h9.72c.09,0,.17-.08.17-.18v-.32c0-.1-.07-.18-.17-.18"/>
  <path class="cls-1" d="M148.33,143.63h-.26c-.98,0-1.9-.67-2.45-1.78l-9.07-21.12c-.03-.06-.08-.1-.15-.1h-.27c-.08,0-.16.07-.16.16-.06.79-1,3.08-1.49,4.19l-7.05,16.92c-.32.64-.73,1.06-1.16,1.34-.01,0-.02.01-.03.02-.1.06-.19.11-.29.16,0,0-.02,0-.02.01-.08.03-.17.07-.25.09,0,0,0,0,0,0-.94-.23-1.66-.87-2.7-2.27-1.16-1.54-3.04-4.71-3.06-4.74-.29-.48-1.24-1.95-2.63-2.69,3.12-.65,4.54-3.62,4.54-6.24,0-3.94-2.77-6.29-7.42-6.29h-10.47s-.09.02-.12.06c-.03.03-.05.08-.05.12v.32c0,.09.08.17.17.17h.39c.97,0,1.76.83,1.78,1.86v17.97c-.03,1.04-.81,1.85-1.79,1.85h-.38c-.09,0-.16.08-.17.17v.32s0,.09.04.12c.03.03.08.05.12.05h9.27s.09-.02.12-.05c.03-.03.05-.08.05-.12v-.32c0-.1-.08-.17-.17-.17h-.38c-.97,0-1.78-.84-1.79-1.86v-18.72c.13,0,.29,0,.48,0,.5,0,1.14-.01,1.66.01,2.11.06,3.33,1.6,3.44,4.37.03.68-.05,1.19-.11,1.53-.57,2.95-2.32,3.59-3.69,3.6h-.93c-.09,0-.16.08-.16.17v.31c0,.09.06.16.14.17.75.14,1.39.82,1.94,2.08l.2.45c.55,1.27,1.7,3.9,2.35,5.11,1.31,2.41,3.49,3.45,7.31,3.45h1.08s0,0,0,0h6.54c.09,0,.16-.08.16-.18v-.32c0-.1-.07-.18-.16-.18h-.27c-.39,0-.78-.2-.98-.52-.21-.34-.23-.77-.03-1.26l1.41-3.62h0l.89-2.25,2.77-7.05h0s0,0,0,0l2.74,7.31h-3.94s-.62-.03-.92.71c-.05.13-.35,1-.35,1h5.85l1.46,3.89c.18.5.16.94-.06,1.28-.2.32-.57.51-.96.51h-.27c-.09,0-.16.08-.16.18v.32c0,.1.08.18.16.18h9.71c.09,0,.17-.08.17-.18v-.32c0-.1-.08-.18-.17-.18"/>
  <path class="cls-1" d="M186.74,105.87c0,.82-.66,1.48-1.48,1.48s-1.48-.66-1.48-1.48.66-1.48,1.48-1.48,1.48.66,1.48,1.48"/>
  <path class="cls-1" d="M66.21,105.87c0,.82-.66,1.48-1.48,1.48s-1.48-.66-1.48-1.48.66-1.48,1.48-1.48,1.48.66,1.48,1.48"/>
  <polygon class="cls-1" points="74.82 102.39 78.84 102.39 78.84 103.22 75.73 103.22 75.73 105.33 78.45 105.33 78.45 106.13 75.73 106.13 75.73 108.52 78.92 108.52 78.92 109.35 74.82 109.35 74.82 102.39"/>
  <path class="cls-1" d="M87.7,105.28c-.32-.45-.62-.91-.93-1.37h-.02c.01.42.02.95.02,1.52v3.92h-.88v-6.96h.88l2.47,3.54,2.47-3.54h.87v6.96h-.91v-3.92c0-.57,0-1.09.02-1.51h-.02c-.31.45-.62.91-.93,1.36l-1.52,2.17-1.52-2.17Z"/>
  <path class="cls-1" d="M99.9,102.39h1.86c.85,0,1.38.08,1.86.37.53.32.82.8.82,1.42,0,.8-.48,1.27-1.06,1.47v.02c.82.19,1.34.73,1.34,1.62,0,.66-.29,1.24-.8,1.6-.49.35-1.16.46-2.17.46h-1.84v-6.96ZM102.19,105.43c.7,0,1.34-.33,1.34-1.09,0-.43-.2-.71-.49-.88-.33-.19-.7-.24-1.39-.24h-.83v2.21h1.37ZM101.81,108.52c.79,0,1.23-.08,1.55-.3.22-.16.45-.44.45-.91,0-.77-.61-1.18-1.65-1.18h-1.35v2.39h.99Z"/>
  <path class="cls-1" d="M111.68,106.08v-3.68h.91v3.59c0,.86.06,1.4.27,1.8.24.45.74.84,1.65.84.85,0,1.36-.33,1.63-.84.22-.41.26-.97.26-1.76v-3.62h.88v3.58c0,1.01-.06,1.79-.46,2.4-.44.67-1.28,1.09-2.35,1.09s-1.9-.42-2.34-1.09c-.4-.62-.46-1.43-.46-2.3"/>
  <polygon class="cls-1" points="126.29 103.22 123.96 103.22 123.96 102.39 129.54 102.39 129.54 103.22 127.21 103.22 127.21 109.35 126.29 109.35 126.29 103.22"/>
  <rect class="cls-1" x="136.28" y="102.39" width=".91" height="6.96"/>
  <path class="cls-1" d="M144.51,102.39h1.91c.92,0,1.76.14,2.46.57,1,.61,1.56,1.67,1.56,2.88s-.5,2.18-1.38,2.81c-.74.52-1.66.7-2.86.7h-1.68v-6.96ZM146.34,108.52c.84,0,1.51-.1,2.07-.46.66-.42,1.12-1.21,1.12-2.19s-.49-1.76-1.12-2.17c-.6-.4-1.34-.48-2.09-.48h-.9v5.31h.91Z"/>
  <path class="cls-1" d="M160.49,102.29c2.02,0,3.54,1.56,3.54,3.58s-1.52,3.59-3.54,3.59-3.54-1.57-3.54-3.59,1.52-3.58,3.54-3.58M160.49,108.61c1.52,0,2.62-1.21,2.62-2.74s-1.11-2.74-2.62-2.74-2.62,1.21-2.62,2.74,1.1,2.74,2.62,2.74"/>
  <path class="cls-1" d="M170.79,107.93c.64.48,1.46.69,2.08.69.83,0,1.41-.37,1.41-1.13,0-.9-.82-1.05-1.73-1.31-.98-.28-1.93-.68-1.93-1.95s.89-1.94,2.25-1.94c.65,0,1.44.16,2,.52v.96c-.64-.45-1.42-.65-2.02-.65-.78,0-1.33.34-1.33,1.05,0,.87.81,1.01,1.65,1.25,1.01.29,2.01.69,2.01,2.02s-.93,2.02-2.33,2.02c-.67,0-1.47-.18-2.07-.53v-1Z"/>
</svg>