<?xml version="1.0" encoding="UTF-8"?>
<svg id="Camada_2" xmlns="http://www.w3.org/2000/svg" viewBox="0 0 180.52 44.27">
  <defs>
    <style>
      .cls-1 {
        fill: #6f6e73;
      }

      .cls-2 {
        fill: #6f6e73;
        fill-rule: evenodd;
      }
    </style>
  </defs>
  <g id="Camada_1-2" data-name="Camada_1">
    <g>
      <g>
        <g>
          <path class="cls-2"
            d="M14.52,0c2.1,0,4.1.45,5.91,1.25l-2.22,3.74c-1.14-.44-2.38-.68-3.68-.68-5.66,0-10.25,4.59-10.25,10.25,0,.79.09,1.56.26,2.3h7.93v-1.27h4.1v5.36c-5.04,0-10.07,0-15.11,0C-3.13,11.61,3.67,0,14.52,0h0Z" />
          <path class="cls-2"
            d="M14.5,29.1c-2.1,0-4.1-.45-5.91-1.25l2.22-3.74c1.14.44,2.38.68,3.68.68,5.66,0,10.25-4.59,10.25-10.25,0-.79-.09-1.56-.26-2.3h-7.93v1.27h-4.1v-5.36c5.04,0,10.07,0,15.11,0,4.57,9.33-2.23,20.94-13.07,20.94h0Z" />
        </g>
        <path class="cls-2"
          d="M51.06,14.58c0-1.39.4-3.12,1.31-4.27,2.36-2.9,7.51-2.49,10.58-1.12h.52v-3.31c-4.77-1.45-11.16-1.74-14.58,2.61-1.47,1.81-2.08,3.95-2.08,6.06,0,2.45.8,4.91,2.63,6.75,2.08,2.08,4.92,2.88,8.07,2.88,2.39-.03,4.68-.35,7.03-.91v-9.39h-7.95v3.2h3.82v3.6c-4.31,1.15-9.36-.87-9.36-6.11h0ZM106.29,5.51v3.25h9.81l-10.55,12.17v3.25h15.38v-3.25h-10.32l9.83-11.36c.55-.91.64-1.76.24-2.59-.52-1.04-1.93-1.47-3.12-1.47h-11.28ZM170.12,9.67l2.87,6.99h-5.75l2.87-6.99h0ZM180.52,24.18h0s-7.49-17.23-7.49-17.23c-.43-.99-1.53-1.65-2.81-1.65s-2.42.64-2.84,1.65l-6,13.98h-9.53c-.52,0-.95-.4-.95-.85V5.51h-4.13v15.02c0,2,1.9,3.65,4.22,3.65h13.11v-.06l1.84-4.29h8.38l1.83,4.35h4.37ZM122.67,14.55c0,5.84,4.22,9.63,10.12,9.63s10.15-3.79,10.15-9.63-4.25-9.63-10.15-9.63-10.12,3.79-10.12,9.63h0ZM126.92,14.55c0-3.92,2.29-6.38,5.87-6.38s5.9,2.85,5.9,6.38c0,3.92-2.32,6.35-5.9,6.35s-5.87-2.43-5.87-6.35h0ZM89.03,5.51v3.25h9.81l-10.55,12.17v3.25h15.38v-3.25h-10.32l9.83-11.36c.55-.91.64-1.76.24-2.59-.52-1.04-1.93-1.47-3.12-1.47h-11.28ZM76.53,9.67l2.87,6.99h-5.75l2.87-6.99h0ZM66.38,24.18h4.1l1.87-4.35h8.38l1.83,4.35h4.37l-7.49-17.23c-.43-.99-1.53-1.65-2.81-1.65s-2.42.64-2.84,1.65l-7.4,17.23h0Z" />
      </g>
      <path class="cls-1"
        d="M49.72,34.41v1.29h-.62v4.84h.62v1.29h-2.91v-1.29h.62v-4.84h-.62v-1.29h2.91ZM55.75,41.83h-1.63v-2.95c0-.82-.29-1.23-.88-1.23-.28,0-.52.11-.7.33-.18.22-.28.49-.28.83v3.02h-1.63v-5.3h1.63v.84h.02c.39-.65.96-.97,1.7-.97,1.17,0,1.76.73,1.76,2.18v3.25h0ZM61.06,41.64c-.37.21-.9.32-1.6.32-.81,0-1.47-.25-1.98-.74-.5-.49-.76-1.13-.76-1.91,0-.9.27-1.61.81-2.13.54-.52,1.26-.78,2.17-.78.62,0,1.08.08,1.36.25v1.39c-.34-.26-.72-.38-1.14-.38-.47,0-.84.14-1.12.41-.27.27-.41.65-.41,1.14s.13.84.39,1.1c.26.27.62.4,1.08.4.41,0,.81-.13,1.2-.38v1.32h0ZM64.66,41.96c-.88,0-1.58-.25-2.08-.74-.51-.49-.76-1.17-.76-2.02s.26-1.56.79-2.06c.52-.49,1.23-.74,2.13-.74s1.57.25,2.07.74c.5.49.75,1.15.75,1.97,0,.88-.26,1.58-.77,2.09-.52.51-1.22.77-2.12.77h0ZM64.7,37.66c-.39,0-.69.13-.9.4-.21.27-.32.64-.32,1.13,0,1.02.41,1.53,1.23,1.53s1.18-.52,1.18-1.57-.4-1.49-1.19-1.49h0ZM72.07,38.01c-.2-.11-.43-.16-.69-.16-.36,0-.63.13-.83.39-.2.26-.3.61-.3,1.06v2.53h-1.63v-5.3h1.63v.98h.02c.26-.72.72-1.08,1.4-1.08.17,0,.31.02.4.06v1.51h0ZM74.49,41.22h-.02v3.06h-1.63v-7.74h1.63v.8h.02c.4-.62.97-.93,1.7-.93.69,0,1.22.23,1.59.71.37.47.56,1.11.56,1.92,0,.88-.22,1.59-.66,2.13-.44.54-1.02.8-1.74.8-.64,0-1.12-.25-1.46-.75h0ZM74.45,39.04v.42c0,.37.1.66.29.9.19.23.45.35.76.35.37,0,.66-.14.87-.43.2-.29.31-.7.31-1.22,0-.93-.36-1.4-1.09-1.4-.33,0-.61.13-.82.38-.21.25-.32.59-.32,1.01h0ZM81.94,41.96c-.88,0-1.58-.25-2.08-.74-.51-.49-.76-1.17-.76-2.02s.26-1.56.79-2.06c.52-.49,1.23-.74,2.13-.74s1.57.25,2.07.74c.5.49.75,1.15.75,1.97,0,.88-.26,1.58-.77,2.09-.52.51-1.22.77-2.12.77h0ZM81.98,37.66c-.39,0-.69.13-.9.4-.21.27-.32.64-.32,1.13,0,1.02.41,1.53,1.23,1.53s1.18-.52,1.18-1.57-.4-1.49-1.19-1.49h0ZM89.35,38.01c-.2-.11-.43-.16-.69-.16-.36,0-.63.13-.83.39-.2.26-.3.61-.3,1.06v2.53h-1.63v-5.3h1.63v.98h.02c.26-.72.72-1.08,1.4-1.08.17,0,.31.02.4.06v1.51h0ZM94.53,41.83h-1.55v-.76h-.02c-.36.59-.88.89-1.58.89-.52,0-.92-.14-1.22-.44-.3-.29-.44-.68-.44-1.17,0-1.03.61-1.62,1.83-1.78l1.44-.19c0-.58-.31-.87-.94-.87s-1.23.19-1.8.56v-1.23c.23-.12.54-.22.93-.31.39-.09.75-.13,1.08-.13,1.51,0,2.27.75,2.27,2.26v3.17h0ZM92.99,39.68v-.36l-.96.12c-.53.07-.8.31-.8.72,0,.19.06.34.19.46.13.12.31.18.53.18.31,0,.56-.11.75-.32.19-.21.29-.48.29-.81h0ZM99.84,41.64c-.37.21-.9.32-1.6.32-.81,0-1.47-.25-1.98-.74-.5-.49-.76-1.13-.76-1.91,0-.9.27-1.61.81-2.13.54-.52,1.26-.78,2.17-.78.62,0,1.08.08,1.36.25v1.39c-.34-.26-.72-.38-1.14-.38-.47,0-.84.14-1.12.41-.27.27-.41.65-.41,1.14s.13.84.39,1.1c.26.27.62.4,1.08.4.41,0,.81-.13,1.2-.38v1.32h0ZM97.34,44.17v-.71c.12.02.25.03.37.03.43,0,.64-.13.64-.38,0-.23-.19-.34-.57-.34-.05,0-.11,0-.19.01v-.94h.89v.42c.64.03.97.31.97.86,0,.71-.55,1.07-1.65,1.07-.16,0-.31,0-.46-.02h0ZM105.32,41.83h-1.55v-.76h-.02c-.36.59-.88.89-1.58.89-.52,0-.92-.14-1.22-.44-.3-.29-.44-.68-.44-1.17,0-1.03.61-1.62,1.83-1.78l1.44-.19c0-.58-.31-.87-.94-.87s-1.23.19-1.8.56v-1.23c.23-.12.54-.22.94-.31.39-.09.75-.13,1.08-.13,1.51,0,2.27.75,2.27,2.26v3.17h0ZM103.78,39.68v-.36l-.96.12c-.53.07-.8.31-.8.72,0,.19.06.34.19.46.13.12.31.18.53.18.31,0,.56-.11.75-.32.19-.21.29-.48.29-.81h0ZM104.92,34.08c0,.48-.1.86-.29,1.12-.19.26-.45.4-.78.4-.3,0-.59-.07-.87-.22-.31-.16-.52-.24-.64-.24-.28,0-.41.19-.41.56h-.73c0-.48.09-.85.28-1.12.19-.27.45-.4.8-.4.28,0,.57.08.87.25.27.15.48.23.62.23.27,0,.4-.19.4-.57h.75ZM109.14,41.96c-.88,0-1.58-.25-2.08-.74-.51-.49-.76-1.17-.76-2.02s.26-1.56.79-2.06c.52-.49,1.23-.74,2.13-.74s1.57.25,2.07.74c.5.49.75,1.15.75,1.97,0,.88-.26,1.58-.77,2.09-.52.51-1.22.77-2.12.77h0ZM109.19,37.66c-.39,0-.69.13-.9.4-.21.27-.32.64-.32,1.13,0,1.02.41,1.53,1.23,1.53s1.18-.52,1.18-1.57-.4-1.49-1.19-1.49h0ZM120.79,39.65h-3.46c.05.77.54,1.15,1.45,1.15.58,0,1.1-.14,1.54-.41v1.18c-.49.26-1.13.39-1.91.39-.86,0-1.52-.24-1.99-.71-.47-.47-.71-1.14-.71-1.98s.25-1.58.77-2.09c.51-.51,1.14-.77,1.88-.77s1.37.23,1.79.69c.42.46.63,1.08.63,1.87v.69h0ZM119.27,38.64c0-.76-.31-1.14-.92-1.14-.26,0-.49.11-.68.33-.19.22-.31.49-.35.81h1.95ZM130.17,41.57c-.54.26-1.25.39-2.12.39-1.14,0-2.03-.33-2.69-1-.65-.67-.98-1.56-.98-2.68,0-1.19.37-2.15,1.1-2.89s1.69-1.11,2.86-1.11c.72,0,1.34.09,1.83.27v1.61c-.5-.3-1.06-.45-1.7-.45-.7,0-1.26.22-1.69.66-.43.44-.64,1.03-.64,1.78s.2,1.29.61,1.72c.4.43.95.64,1.63.64s1.25-.16,1.79-.48v1.53h0ZM133.83,41.96c-.88,0-1.58-.25-2.08-.74-.51-.49-.76-1.17-.76-2.02s.26-1.56.79-2.06c.52-.49,1.23-.74,2.13-.74s1.57.25,2.07.74c.5.49.75,1.15.75,1.97,0,.88-.26,1.58-.77,2.09-.52.51-1.22.77-2.12.77h0ZM133.87,37.66c-.39,0-.69.13-.9.4-.21.27-.32.64-.32,1.13,0,1.02.41,1.53,1.23,1.53s1.18-.52,1.18-1.57-.4-1.49-1.19-1.49h0ZM142.9,41.83h-1.63v-2.95c0-.82-.29-1.23-.88-1.23-.28,0-.52.11-.7.33-.18.22-.28.49-.28.83v3.02h-1.63v-5.3h1.63v.84h.02c.39-.65.96-.97,1.7-.97,1.17,0,1.76.73,1.76,2.18v3.25h0ZM143.85,41.69v-1.33c.27.16.54.28.81.36.27.08.52.12.76.12.29,0,.52-.04.69-.12.17-.08.25-.2.25-.36,0-.1-.04-.19-.11-.26-.08-.07-.17-.13-.29-.18-.12-.05-.25-.1-.39-.14-.14-.04-.28-.09-.41-.14-.21-.08-.4-.17-.56-.26-.16-.09-.29-.2-.4-.32-.11-.12-.19-.26-.25-.42-.06-.16-.09-.35-.09-.56,0-.3.07-.55.19-.77.13-.21.3-.39.52-.52.22-.14.46-.24.74-.3.28-.06.57-.1.87-.1.23,0,.47.02.71.05.24.04.48.09.71.16v1.26c-.21-.12-.43-.21-.66-.27-.24-.06-.47-.09-.7-.09-.11,0-.21,0-.3.03-.1.02-.18.05-.25.08-.07.04-.13.08-.17.14-.04.06-.06.12-.06.19,0,.1.03.18.09.25.06.07.14.13.24.18.1.05.21.1.33.13.12.04.24.08.37.12.22.08.41.16.59.25.17.09.33.19.45.32.13.12.22.26.29.42.07.16.1.36.1.58,0,.31-.07.58-.21.81-.14.22-.32.4-.54.54-.23.14-.49.24-.78.31-.29.06-.6.1-.92.1-.58,0-1.12-.09-1.62-.27h0ZM152.07,41.77c-.24.13-.61.19-1.09.19-1.15,0-1.73-.6-1.73-1.8v-2.43h-.86v-1.21h.86v-1.14l1.63-.47v1.61h1.19v1.21h-1.19v2.14c0,.55.22.83.66.83.17,0,.35-.05.53-.15v1.21h0ZM156.45,38.01c-.2-.11-.43-.16-.69-.16-.36,0-.63.13-.83.39-.2.26-.3.61-.3,1.06v2.53h-1.63v-5.3h1.63v.98h.02c.26-.72.72-1.08,1.4-1.08.17,0,.31.02.4.06v1.51h0ZM162.28,41.83h-1.63v-.81h-.02c-.4.62-.94.94-1.62.94-1.23,0-1.84-.74-1.84-2.23v-3.2h1.63v3.06c0,.75.3,1.12.89,1.12.29,0,.53-.1.7-.31.18-.2.26-.48.26-.84v-3.03h1.63v5.3h0ZM167.68,41.64c-.37.21-.9.32-1.6.32-.81,0-1.47-.25-1.98-.74-.5-.49-.76-1.13-.76-1.91,0-.9.27-1.61.81-2.13.54-.52,1.26-.78,2.17-.78.62,0,1.08.08,1.36.25v1.39c-.34-.26-.72-.38-1.14-.38-.47,0-.84.14-1.12.41-.27.27-.41.65-.41,1.14s.13.84.39,1.1c.26.27.62.4,1.08.4.41,0,.81-.13,1.2-.38v1.32h0ZM165.18,44.17v-.71c.12.02.25.03.37.03.43,0,.64-.13.64-.38,0-.23-.19-.34-.57-.34-.05,0-.11,0-.19.01v-.94h.89v.42c.64.03.97.31.97.86,0,.71-.55,1.07-1.65,1.07-.16,0-.31,0-.46-.02h0ZM173.16,41.83h-1.55v-.76h-.02c-.36.59-.88.89-1.58.89-.52,0-.92-.14-1.22-.44-.3-.29-.44-.68-.44-1.17,0-1.03.61-1.62,1.83-1.78l1.44-.19c0-.58-.31-.87-.94-.87s-1.23.19-1.8.56v-1.23c.23-.12.54-.22.93-.31.39-.09.75-.13,1.08-.13,1.51,0,2.27.75,2.27,2.26v3.17h0ZM171.62,39.68v-.36l-.96.12c-.53.07-.8.31-.8.72,0,.19.06.34.19.46.13.12.31.18.53.18.31,0,.56-.11.75-.32.19-.21.29-.48.29-.81h0ZM172.76,34.08c0,.48-.1.86-.29,1.12-.19.26-.45.4-.78.4-.3,0-.59-.07-.87-.22-.31-.16-.52-.24-.64-.24-.28,0-.41.19-.41.56h-.73c0-.48.09-.85.28-1.12.19-.27.45-.4.8-.4.28,0,.57.08.87.25.27.15.48.23.62.23.27,0,.4-.19.4-.57h.75ZM176.98,41.96c-.88,0-1.58-.25-2.08-.74-.51-.49-.76-1.17-.76-2.02s.26-1.56.79-2.06c.52-.49,1.23-.74,2.13-.74s1.57.25,2.07.74c.5.49.75,1.15.75,1.97,0,.88-.26,1.58-.77,2.09-.52.51-1.22.77-2.12.77h0ZM177.02,37.66c-.39,0-.69.13-.9.4-.21.27-.32.64-.32,1.13,0,1.02.41,1.53,1.23,1.53s1.18-.52,1.18-1.57-.4-1.49-1.19-1.49h0Z" />
    </g>
  </g>
</svg>