<?xml version="1.0" encoding="UTF-8"?>
<svg id="Camada_1" xmlns="http://www.w3.org/2000/svg" viewBox="0 0 250 250">
  <defs>
    <style>
      .cls-1 {
        fill: #6f6e73;
        fill-rule: evenodd;
      }
    </style>
  </defs>
  <g>
    <path class="cls-1" d="M136.78,134.27h-3.92l8.76-20.63h4.11l8.94,20.63h-4.11l-2.35-5.63h-6.85l1.31-3.31h4.16l-3.24-7.75-6.8,16.69ZM111.94,134.27v-20.63h3.82l10.89,15.03v-15.03h3.68v20.63h-3.83l-10.89-15.35v15.35h-3.68ZM107.61,113.63v20.63h-3.82v-20.63h3.82ZM101.63,113.63v3.32h-5.92v17.31h-3.83v-17.31h-5.91v-3.32h15.65ZM69.89,134.27h-3.93l8.76-20.63h4.11l8.95,20.63h-4.11l-2.35-5.63h-6.85l1.31-3.31h4.15l-3.24-7.75-6.79,16.69ZM55.97,113.63v17.32h8.19v3.32h-12.01v-20.63h3.82Z"/>
    <path class="cls-1" d="M208.04,113.63v17.32h8.19v3.32h-12.01v-20.63h3.82ZM182.15,126.16v-12.52h3.82v12.52c0,3.29,1.69,4.94,5.05,4.94s5.05-1.64,5.05-4.94v-12.52h3.82v12.52c0,5.51-2.96,8.26-8.87,8.26s-8.87-2.75-8.87-8.26ZM163.32,133.4v-3.46c2.07.77,4.41,1.15,7.01,1.15,3.17,0,4.75-1.05,4.75-3.17,0-1.54-.97-2.31-2.91-2.31h-3.23c-4.23,0-6.33-1.92-6.33-5.77,0-4.23,3-6.34,9.02-6.34,2.31,0,4.49.34,6.57,1.01v3.46c-2.07-.77-4.25-1.15-6.57-1.15-3.46,0-5.2,1.01-5.2,3.03,0,1.54.84,2.31,2.51,2.31h3.23c4.49,0,6.73,1.92,6.73,5.77,0,4.33-2.86,6.49-8.57,6.49-2.6,0-4.94-.34-7.01-1.01Z"/>
  </g>
  <path class="cls-1" d="M55.09,106.86h-15.15c.65.65,1.28,1.34,1.85,2.07,1.29,1.67,2.2,3.53,2.2,5.62.01,3.35-1.18,5.35-2.43,7.44-1.24,2.08-2.54,4.27-2.42,8.25.02.6.12,1.28.3,2.01.59,2.4,2.07,5.19,4.66,7.34,2.61,2.17,6.35,3.7,11.47,3.54,1.86-.06,3.91-.34,6.16-.89l.57,2.31c-2.41.6-4.63.9-6.67.96-5.77.18-10.05-1.58-13.06-4.09-3.03-2.52-4.76-5.79-5.46-8.6-.22-.88-.34-1.74-.36-2.52-.15-4.66,1.34-7.16,2.76-9.53,1.07-1.8,2.1-3.53,2.09-6.22,0-1.47-.71-2.87-1.71-4.16-1.07-1.39-2.5-2.68-3.79-3.83l-2.34-2.08h21.32v2.39Z"/>
</svg>