<?xml version="1.0" encoding="UTF-8"?>
<svg id="Camada_1" xmlns="http://www.w3.org/2000/svg" viewBox="0 0 250 250">
  <defs>
    <style>
      .cls-1 {
        fill: #6f6e73;
      }
    </style>
  </defs>
  <g>
    <polygon class="cls-1" points="102.74 75.84 102.74 92.21 101.36 92.21 101.36 92.21 83.62 92.21 84.99 93.59 85 93.59 99.97 108.57 117.72 108.57 117.72 90.82 102.74 75.84"/>
    <polygon class="cls-1" points="82.28 90.82 82.28 90.82 67.29 75.84 49.54 75.84 49.54 93.58 64.53 108.57 64.53 92.2 65.91 92.2 65.91 92.2 83.65 92.2 82.28 90.82"/>
  </g>
  <g>
    <path class="cls-1" d="M65.3,125.34l.04,11.89h-2.72s-.03-8.26-.03-8.26l-5.19,6.38h-.14s-5.23-6.35-5.23-6.35l.03,8.27h-2.63s-.04-11.88-.04-11.88h2.95s5.05,6.26,5.05,6.26l5.01-6.3h2.9Z"/>
    <path class="cls-1" d="M78.91,134.68l-7.18.02-1.27,2.52h-2.9s6.26-11.9,6.26-11.9h2.97s6.34,11.86,6.34,11.86h-2.94s-1.28-2.5-1.28-2.5ZM77.77,132.47l-2.48-4.83-2.45,4.85h4.92Z"/>
    <path class="cls-1" d="M95.2,127.6l-5.2.02.03,9.54h-2.72s-.03-9.53-.03-9.53l-5.16.02v-2.34s13.07-.04,13.07-.04v2.34Z"/>
    <path class="cls-1" d="M111.19,125.2l.04,11.89h-2.72s-.01-4.83-.01-4.83l-8.1.02v4.84s-2.7,0-2.7,0l-.04-11.89h2.72s.01,4.66.01,4.66l8.1-.02v-4.67s2.7,0,2.7,0Z"/>
    <path class="cls-1" d="M127.25,134.77v2.28s-12.24.04-12.24.04l-.04-11.89,12.07-.04v2.28s-9.37.03-9.37.03v2.45s7.84-.02,7.84-.02v2.28s-7.82.02-7.82.02v2.62s9.55-.03,9.55-.03Z"/>
    <path class="cls-1" d="M143.3,125.11l.02,6.28c.01,3.57-2.34,5.98-6.66,6-4.31.01-6.68-2.39-6.69-5.96l-.02-6.28h2.72s.02,6.07.02,6.07c0,2.38,1.4,3.8,3.97,3.79,2.56,0,3.95-1.44,3.94-3.82l-.02-6.08h2.72Z"/>
    <path class="cls-1" d="M159.5,133.34c0,2.34-2.21,3.98-6.42,3.99-3.01,0-5.45-.83-7.27-2.37l1.56-1.86c1.46,1.34,3.35,1.96,5.78,1.95,2.41,0,3.63-.47,3.63-1.45,0-.98-1.23-1.25-3.96-1.48-3.4-.28-6.56-1.02-6.57-3.56,0-2.48,2.64-3.85,6.31-3.86,2.6,0,4.84.63,6.36,1.8l-1.49,1.89c-1.31-1-2.93-1.4-4.86-1.41-1.61-.01-3.58.28-3.58,1.37,0,1.02,1.7,1.12,4.06,1.3,3.79.29,6.46,1.08,6.46,3.7Z"/>
    <path class="cls-1" d="M62.98,146.25l.04,11.89h-2.38s-8.55-8.56-8.55-8.56l.03,8.59h-2.63s-.04-11.88-.04-11.88h2.89s8.04,8.12,8.04,8.12l-.02-8.15h2.63Z"/>
    <path class="cls-1" d="M76.6,155.58l-7.18.02-1.27,2.52h-2.9s6.26-11.9,6.26-11.9h2.97s6.34,11.86,6.34,11.86h-2.94s-1.28-2.5-1.28-2.5ZM75.45,153.38l-2.48-4.83-2.45,4.85h4.92Z"/>
    <path class="cls-1" d="M95.2,154.44c0,2.34-2.21,3.98-6.42,3.99-3.01,0-5.45-.83-7.28-2.37l1.56-1.86c1.46,1.34,3.35,1.96,5.78,1.95,2.41,0,3.63-.47,3.63-1.45,0-.98-1.23-1.25-3.96-1.48-3.4-.28-6.56-1.02-6.57-3.56,0-2.48,2.64-3.85,6.31-3.86,2.6,0,4.84.63,6.36,1.8l-1.49,1.89c-1.31-1-2.92-1.4-4.86-1.41-1.61-.01-3.58.28-3.58,1.37,0,1.02,1.7,1.12,4.06,1.3,3.79.29,6.46,1.08,6.46,3.7Z"/>
    <path class="cls-1" d="M108.65,154.09l2.48,1.23c-1.12,1.68-3.4,3.05-6.51,3.06-4.47.01-7.38-2.34-7.39-6.29-.01-3.96,2.88-6.33,7.47-6.34,2.99,0,5.29,1.36,6.38,3l-2.49,1.25c-.85-1.32-2.15-1.91-3.91-1.91-2.82,0-4.68,1.37-4.67,3.99,0,2.62,1.88,3.97,4.7,3.96,1.77,0,3.07-.59,3.95-1.95Z"/>
    <path class="cls-1" d="M113.77,157.98l-.04-11.89h2.72s.04,11.88.04,11.88h-2.72Z"/>
    <path class="cls-1" d="M136.14,146.03l.04,11.89h-2.72s-.03-8.26-.03-8.26l-5.19,6.38h-.14s-5.23-6.35-5.23-6.35l.03,8.27h-2.63s-.04-11.88-.04-11.88h2.95s5.05,6.26,5.05,6.26l5.01-6.3h2.9Z"/>
    <path class="cls-1" d="M152.2,155.59v2.28s-12.24.04-12.24.04l-.04-11.89,12.07-.04v2.28s-9.37.03-9.37.03v2.45s7.84-.02,7.84-.02v2.28s-7.82.02-7.82.02v2.62s9.55-.03,9.55-.03Z"/>
    <path class="cls-1" d="M168.64,145.93l.04,11.89h-2.38s-8.55-8.56-8.55-8.56l.03,8.59h-2.63s-.04-11.88-.04-11.88h2.89s8.04,8.12,8.04,8.12l-.02-8.15h2.63Z"/>
    <path class="cls-1" d="M184.2,148.23l-5.2.02.03,9.54h-2.72s-.03-9.53-.03-9.53l-5.16.02v-2.34s13.07-.04,13.07-.04v2.34Z"/>
    <path class="cls-1" d="M185.5,151.82c-.01-3.97,2.9-6.33,7.54-6.34,4.64-.01,7.56,2.32,7.58,6.29.01,3.97-2.9,6.33-7.54,6.34-4.64.01-7.56-2.32-7.58-6.29ZM197.84,151.79c0-2.55-1.86-3.97-4.8-3.96-2.94,0-4.78,1.44-4.78,3.99,0,2.55,1.85,3.97,4.8,3.96,2.94,0,4.78-1.44,4.78-3.99Z"/>
  </g>
</svg>