<?xml version="1.0" encoding="UTF-8"?>
<svg id="Camada_1" xmlns="http://www.w3.org/2000/svg" viewBox="0 0 250 250">
  <defs>
    <style>
      .cls-1 {
        fill: #6f6e73;
      }
    </style>
  </defs>
  <path class="cls-1" d="M101.16,110h-4.42c-.3,0-.54.18-.6.48l-11.45,25.28h-.18v-25.28c-.06-.3-.24-.48-.6-.48h-7.53c-.3,0-.54.18-.6.48l-11.45,25.28h-.24l-.02-13.22v-12.06c-.05-.24-.17-.39-.4-.45-.03,0-.06,0-.09-.01-.04,0-.06-.01-.1-.01h-7.47c-.3,0-.49.18-.6.48l-4,8.82c-.17.37.1.79.51.79h4.2c.29,0,.55-.17.67-.43l2.08-4.46h.18l.02,9.32h0v15.23c0,.33.27.6.6.6h7.46c.3,0,.54-.17.6-.47l11.51-24.68h.18l.06,24.68c.06.3.3.48.6.48h7.47c.3,0,.48-.18.6-.42l13.49-29.34c.12-.42-.12-.6-.48-.6Z"/>
  <path class="cls-1" d="M151.12,109.59c-8.9,0-15,6.27-15,15.54s6.03,15.42,15,15.42,15.06-6.21,15.06-15.42-6.09-15.54-15.06-15.54ZM151.12,136c-5.8,0-9.32-4.12-9.32-10.87s3.53-10.99,9.32-10.99,9.38,4.18,9.38,10.99-3.64,10.87-9.38,10.87Z"/>
  <path class="cls-1" d="M117.71,109.46c-9.14,0-15,6.03-15,15.54s5.86,15.42,15,15.42c7.47,0,12.37-3.7,13.5-9.14.06-.3-.12-.42-.48-.42h-4.42c-.3,0-.48.06-.54.42-.96,2.87-3.76,4.6-8.07,4.6-5.56,0-8.84-3.41-9.26-9.08h22.47c.3,0,.48-.18.48-.48v-1.37c0-9.62-5.2-15.48-13.68-15.48ZM108.45,122.72c.54-5.62,3.76-8.72,9.26-8.72,4.9,0,8.01,3.17,8.31,8.72h-17.57Z"/>
  <path class="cls-1" d="M198.64,110.51c0-.27-.22-.49-.49-.49h-3.89c-.3-.01-.54.1-.6.46l-.04,25.28h-.24l-13.64-25.28c-.06-.3-.3-.48-.6-.48h-7.53c-.35,0-.53.18-.59.47v29.32c0,.31.25.57.57.57h3.85c.3,0,.54-.18.6-.48l.06-24.68h.18l13.7,24.68c.06.3.3.48.6.48h7.43c.35,0,.64-.29.64-.65v-29.21Z"/>
</svg>