<?xml version="1.0" encoding="UTF-8"?>
<svg id="Camada_2" data-name="Camada 2" xmlns="http://www.w3.org/2000/svg" viewBox="0 0 178.1 38.79">
  <defs>
    <style>
      .cls-1 {
        fill: #fe5f2d;
        stroke-width: 0px;
      }
    </style>
  </defs>
  <g id="Design_PC" data-name="Design / PC">
    <g>
      <path class="cls-1" d="M131.11.85h-11.75s-12.32,37.23-12.32,37.23h6.16s3.13-9.84,3.13-9.84l.55-1.71h16.63l.55,1.71,3.13,9.84h6.3S131.11.85,131.11.85ZM124.38,2.95h1.66s5.86,18.53,5.86,18.53h-13.42l5.89-18.53Z"/>
      <path class="cls-1" d="M103.16,3.99c-2.58-2.17-6.18-3.26-10.8-3.26h-13.76v37.35h5.62l.06-11.56h8.14c4.62,0,7.89-1.61,10.47-3.8,2.58-2.19,4.14-5.35,4.14-9.23s-1.29-7.33-3.87-9.5ZM98.81,19.34c-1.67,1.42-4.02,2.13-7.04,2.13h-7.48l-.06-15.62h7.48c3.02,0,5.95.37,7.62,1.79,1.67,1.42,2.11,3.21,2.11,5.77s-.95,4.5-2.62,5.93Z"/>
      <g>
        <polygon class="cls-1" points="165.44 29.69 165.42 29.69 165.42 29.71 165.44 29.69"/>
        <polygon class="cls-1" points="178.09 13.36 178.1 .87 149.11 .86 149.11 6.71 176.13 6.72 176.13 7.5 149.11 25.56 149.11 38.06 178.08 38.07 178.09 32.26 151.09 32.24 151.09 31.49 178.09 13.36"/>
      </g>
      <path class="cls-1" d="M29.19,29c-2.49,2.53-5.95,4.1-9.77,4.1-7.58,0-13.08-6.14-13.08-13.72s5.5-13.72,13.08-13.72c3.84,0,7.3,1.58,9.79,4.12l3.98-3.99C29.68,2.21,24.79,0,19.39,0,8.68,0,0,8.68,0,19.39s8.68,19.39,19.39,19.39c5.4,0,10.28-2.21,13.8-5.77l-4-4.01Z"/>
      <path class="cls-1" d="M60.71.85h-11.75s-12.32,37.23-12.32,37.23h6.16s3.13-9.84,3.13-9.84l.55-1.71h16.63l.55,1.71,3.13,9.84h6.3S60.71.85,60.71.85ZM53.98,2.95h1.66s5.86,18.53,5.86,18.53h-13.42l5.89-18.53Z"/>
    </g>
  </g>
</svg>