<?xml version="1.0" encoding="UTF-8"?>
<svg id="Camada_2" data-name="Camada 2" xmlns="http://www.w3.org/2000/svg" viewBox="0 0 718.34 181.76">
  <defs>
    <style>
      .cls-1 {
        fill: #fe5f2d;
        stroke-width: 0px;
      }
    </style>
  </defs>
  <g id="Design_PC" data-name="Design / PC">
    <g>
      <g>
        <rect class="cls-1" x="142.83" y="89.9" width="251.74" height="3.32" transform="translate(13.98 216.87) rotate(-45.01)"/>
        <polygon class="cls-1" points="359.51 19.94 356.19 19.82 356.78 3.45 340.41 4.05 340.29 .73 360.23 0 359.51 19.94"/>
      </g>
      <g>
        <rect class="cls-1" x="202.51" y="89.9" width="251.74" height="3.32" transform="translate(31.47 259.08) rotate(-45.01)"/>
        <polygon class="cls-1" points="419.19 19.94 415.87 19.82 416.47 3.45 400.09 4.05 399.97 .73 419.92 0 419.19 19.94"/>
      </g>
      <g>
        <rect class="cls-1" x="262.19" y="89.9" width="251.74" height="3.32" transform="translate(48.96 301.29) rotate(-45.01)"/>
        <polygon class="cls-1" points="478.88 19.94 475.55 19.82 476.15 3.45 459.78 4.05 459.66 .73 479.6 0 478.88 19.94"/>
      </g>
      <g>
        <rect class="cls-1" x="321.88" y="89.9" width="251.74" height="3.32" transform="translate(66.45 343.5) rotate(-45.01)"/>
        <polygon class="cls-1" points="538.56 19.94 535.24 19.82 535.84 3.45 519.46 4.05 519.34 .73 539.29 0 538.56 19.94"/>
      </g>
      <g>
        <rect class="cls-1" x="381.56" y="89.9" width="251.74" height="3.32" transform="translate(83.94 385.72) rotate(-45.01)"/>
        <polygon class="cls-1" points="598.25 19.94 594.92 19.82 595.52 3.45 579.15 4.05 579.03 .73 598.97 0 598.25 19.94"/>
      </g>
      <g>
        <rect class="cls-1" x="441.25" y="89.9" width="251.74" height="3.32" transform="translate(101.43 427.93) rotate(-45.01)"/>
        <polygon class="cls-1" points="657.93 19.94 654.61 19.82 655.2 3.45 638.83 4.05 638.71 .73 658.65 0 657.93 19.94"/>
      </g>
      <g>
        <rect class="cls-1" x="500.93" y="89.9" width="251.74" height="3.32" transform="translate(118.92 470.14) rotate(-45.01)"/>
        <polygon class="cls-1" points="717.62 19.94 714.29 19.82 714.89 3.45 698.52 4.05 698.4 .73 718.34 0 717.62 19.94"/>
      </g>
      <g>
        <rect class="cls-1" x="-35.71" y="89.9" width="251.74" height="3.32" transform="translate(-38.34 90.6) rotate(-45.01)"/>
        <polygon class="cls-1" points="180.98 19.94 177.65 19.82 178.25 3.45 161.88 4.05 161.76 .73 181.7 0 180.98 19.94"/>
      </g>
      <g>
        <rect class="cls-1" x="23.98" y="89.9" width="251.74" height="3.32" transform="translate(-20.85 132.81) rotate(-45.01)"/>
        <polygon class="cls-1" points="240.66 19.94 237.34 19.82 237.94 3.45 221.56 4.05 221.44 .73 241.38 0 240.66 19.94"/>
      </g>
      <g>
        <rect class="cls-1" x="83.66" y="89.9" width="251.74" height="3.32" transform="translate(-3.36 175.02) rotate(-45.01)"/>
        <polygon class="cls-1" points="300.35 19.94 297.02 19.82 297.62 3.45 281.25 4.05 281.13 .73 301.07 0 300.35 19.94"/>
      </g>
    </g>
  </g>
</svg>