<svg width="38" height="44" viewBox="0 0 38 44" fill="none" xmlns="http://www.w3.org/2000/svg">
<path d="M38 4.40041L33.2497 0L28.4994 4.40041L23.7492 8.80083L19.0011 13.2012L14.2508 8.80083L9.50056 4.40041L4.75028 0L0.0178582 4.38387H0V30.8401H0.0446455L4.75028 35.1992L9.50056 39.5996L14.2508 44C17.9609 44 20.0391 44 23.7469 44L28.4972 39.5996L33.2475 35.1992L37.9531 30.8401H37.9978V4.40248L38 4.40041ZM9.50056 30.7988L6.71914 28.2222V10.6247L9.50056 13.2012L14.2508 17.6017L15.6393 18.8899V36.4874L14.2508 35.2012L9.50056 30.8008V30.7988ZM23.7492 35.1992L22.3585 36.4874V18.8899L23.7492 17.6017L28.4994 13.2012L31.2809 10.6247V28.2222L28.4994 30.7988L23.7492 35.1992Z" fill="#FE5F2D"/>
</svg>
