<svg width="40" height="44" viewBox="0 0 40 44" fill="none" xmlns="http://www.w3.org/2000/svg">
<g clip-path="url(#clip0_7_47)">
<path d="M4.00124 12.0019L0 15.9991V8.00056L8.00041 0L12.0017 4.00132L16.0008 8.00056L20 12.0019L15.9988 15.9991L8.00041 8.00056L4.00124 12.0019Z" fill="#FE5F2D"/>
<path d="M39.9999 8.00263V15.9991L35.9987 12.0019L31.9995 8.00056L28.0003 12.0019L20.002 20.0004L16.0007 16.0011L24.0011 8.00056L27.9983 4.00132L31.9995 0L39.9999 8.00263Z" fill="#FE5F2D"/>
<path d="M35.9988 20.0004L40 15.9991V23.9996L35.9988 28.0009L32.0017 32.0023L28.0004 36.0015L24.0012 40.0007L20 44L15.9988 40.0007L12.0017 36.0015H11.9996L8.00041 32.0023L4.00124 28.0009L0 23.9996V15.9991L12.0017 28.0009L15.9988 32.0023L20 35.9994L24.0012 32.0023L28.0004 28.0009L31.9996 23.9996L35.9988 20.0004Z" fill="#FE5F2D"/>
</g>
<defs>
<clipPath id="clip0_7_47">
<rect width="40" height="44" fill="white"/>
</clipPath>
</defs>
</svg>
