<?xml version="1.0" encoding="UTF-8"?>
<svg id="Camada_2" data-name="Camada 2" xmlns="http://www.w3.org/2000/svg" viewBox="0 0 39.73 34.08">
  <defs>
    <style>
      .cls-1 {
        fill: #fe5f2d;
        stroke-width: 0px;
      }
    </style>
  </defs>
  <g id="Design_PC" data-name="Design / PC">
    <path class="cls-1" d="M33.94,0l-11.8,5.66h-10.79v.03C5.08,5.68,0,10.77,0,17.04h0c0,6.27,5.08,11.36,11.36,11.36h0v5.68h5.68v-5.68h5.11l11.85,5.68h5.73V0h-5.79ZM17.04,22.72l-5.68-.02c-3.13,0-5.66-2.53-5.66-5.66h0c0-3.13,2.53-5.66,5.66-5.66l5.68-.04h0v4.64h0v1.93h0v4.81h0ZM34.06,17.02v11.16l-11.36-5.45h0v-11.39h0s11.36-5.46,11.36-5.46v11.14Z"/>
  </g>
</svg>