<?xml version="1.0" encoding="UTF-8"?>
<svg id="Camada_2" data-name="Camada 2" xmlns="http://www.w3.org/2000/svg" viewBox="0 0 215.13 54.43">
  <defs>
    <style>
      .cls-1 {
        fill: #fe5f2d;
        stroke-width: 0px;
      }

      .cls-2 {
        fill: none;
        stroke: #fe5f2d;
        stroke-miterlimit: 10;
        stroke-width: 1px;
      }
    </style>
  </defs>
  <g id="Design_Mobile" data-name="Design / Mobile">
    <g>
      <g>
        <line class="cls-2" x1="53.82" y1="54.08" x2="107.12" y2=".76"/>
        <polygon class="cls-1" points="107.67 5.97 106.67 5.94 106.85 1.03 101.95 1.21 101.91 .22 107.89 0 107.67 5.97"/>
      </g>
      <g>
        <line class="cls-2" x1="71.7" y1="54.08" x2="125" y2=".76"/>
        <polygon class="cls-1" points="125.54 5.97 124.55 5.94 124.73 1.03 119.82 1.21 119.79 .22 125.76 0 125.54 5.97"/>
      </g>
      <g>
        <line class="cls-2" x1="89.57" y1="54.08" x2="142.87" y2=".76"/>
        <polygon class="cls-1" points="143.42 5.97 142.42 5.94 142.6 1.03 137.7 1.21 137.66 .22 143.64 0 143.42 5.97"/>
      </g>
      <g>
        <line class="cls-2" x1="107.44" y1="54.08" x2="160.75" y2=".76"/>
        <polygon class="cls-1" points="161.29 5.97 160.3 5.94 160.48 1.03 155.57 1.21 155.54 .22 161.51 0 161.29 5.97"/>
      </g>
      <g>
        <line class="cls-2" x1="125.32" y1="54.08" x2="178.62" y2=".76"/>
        <polygon class="cls-1" points="179.17 5.97 178.17 5.94 178.35 1.03 173.45 1.21 173.41 .22 179.39 0 179.17 5.97"/>
      </g>
      <g>
        <line class="cls-2" x1="143.19" y1="54.08" x2="196.5" y2=".76"/>
        <polygon class="cls-1" points="197.04 5.97 196.05 5.94 196.23 1.03 191.32 1.21 191.29 .22 197.26 0 197.04 5.97"/>
      </g>
      <g>
        <line class="cls-2" x1="161.07" y1="54.08" x2="214.37" y2=".76"/>
        <polygon class="cls-1" points="214.92 5.97 213.92 5.94 214.1 1.03 209.2 1.21 209.16 .22 215.13 0 214.92 5.97"/>
      </g>
      <g>
        <line class="cls-2" x1=".35" y1="54.08" x2="53.65" y2=".76"/>
        <polygon class="cls-1" points="54.2 5.97 53.21 5.94 53.38 1.03 48.48 1.21 48.44 .22 54.42 0 54.2 5.97"/>
      </g>
      <g>
        <line class="cls-2" x1="18.23" y1="54.08" x2="71.53" y2=".76"/>
        <polygon class="cls-1" points="72.08 5.97 71.08 5.94 71.26 1.03 66.36 1.21 66.32 .22 72.29 0 72.08 5.97"/>
      </g>
      <g>
        <line class="cls-2" x1="36.1" y1="54.08" x2="89.4" y2=".76"/>
        <polygon class="cls-1" points="89.95 5.97 88.96 5.94 89.13 1.03 84.23 1.21 84.19 .22 90.17 0 89.95 5.97"/>
      </g>
    </g>
  </g>
</svg>