<svg width="197" height="46" viewBox="0 0 197 46" fill="none" xmlns="http://www.w3.org/2000/svg">
<path d="M32.3099 30.07L26.49 26.06C25.18 25.15 24.37 24.36 24.44 23.2C24.52 21.46 26.0899 20.25 28.2699 20.25C30.7799 20.25 32.4 21.65 32.4 23.81C32.4 23.9 32.4699 23.98 32.5699 23.98H32.8599C32.9499 23.98 33.02 23.91 33.03 23.82L33.4299 19.06C33.4299 19.01 33.42 18.96 33.39 18.92C33.36 18.88 33.3099 18.86 33.2699 18.86H31.37C29.96 18.67 28.1599 18.53 27.1999 18.53C23.4199 18.53 20.89 20.77 20.62 24.36C20.4 26.73 21.4299 28.8 23.6099 30.34L28.92 34.08C30.69 35.33 31.29 36.13 31.28 37.28C31.28 39.31 29.65 40.7 27.23 40.75H27.1099C25.4299 40.75 23.94 40.12 22.94 38.96C21.99 37.87 21.53 36.41 21.64 34.84C21.64 34.79 21.63 34.74 21.6 34.71C21.57 34.67 21.52 34.65 21.48 34.65H21.21C21.15 34.65 21.0999 34.68 21.0699 34.73C20.2799 36.13 19.7799 38.91 20.3399 40.39C20.3399 40.41 20.36 40.43 20.37 40.45C21.49 41.68 24.05 42.47 26.9 42.47C31.86 42.47 34.93 39.9 35.12 35.6C35.24 33.27 34.32 31.47 32.3099 30.07Z" fill="white"/>
<path d="M48.2699 18.99L38.0999 19.04C38.0999 19.04 38.0099 19.06 37.9799 19.09C37.9499 19.12 37.9299 19.17 37.9299 19.22V19.54C37.9299 19.64 38.0099 19.71 38.0999 19.71H38.4799C39.4599 19.71 40.2699 20.46 40.2699 21.39L40.3699 39.51C40.3599 40.54 39.5599 41.38 38.5899 41.38H38.1999C38.1099 41.38 38.0399 41.46 38.0399 41.56V41.88C38.0399 41.88 38.0599 41.97 38.0899 42C38.1199 42.04 38.1599 42.06 38.2099 42.06L47.4799 42.01C47.4799 42.01 47.5699 41.99 47.5999 41.96C47.6299 41.93 47.6499 41.88 47.6499 41.83V41.51C47.6499 41.41 47.5699 41.34 47.4799 41.34H47.0899C46.1199 41.34 45.3199 40.52 45.2899 39.49L45.1899 20.72H47.0599C49.3299 20.7 50.7399 22.33 50.8499 25.09C50.8799 25.7 50.8099 26.45 50.6799 26.98C49.8599 30.2 47.3699 30.56 46.3399 30.57C46.2699 30.57 46.2199 30.57 46.1399 30.57C46.0699 30.57 46.0099 30.61 45.9799 30.68C45.9799 30.7 45.9699 30.73 45.9699 30.75V31.06C45.9699 31.12 45.9999 31.17 46.0499 31.2C47.1899 31.99 48.4799 32.4 49.7899 32.39C51.5199 32.39 53.1899 31.62 54.3699 30.31C55.5499 29 56.1499 27.23 56.0799 25.32C55.9399 21.27 53.0999 18.96 48.2899 18.99" fill="white"/>
<path d="M148.01 18.99H138.76C138.76 18.99 138.67 19.01 138.64 19.05C138.61 19.08 138.59 19.13 138.59 19.17V19.49C138.59 19.59 138.67 19.66 138.76 19.66H139.32C140.25 19.66 141.02 20.46 141.04 21.45V33.85L125.93 18.55C125.93 18.55 125.86 18.5 125.81 18.5H125.51C125.46 18.5 125.41 18.52 125.38 18.57C125.35 18.61 125.34 18.67 125.35 18.72C125.35 18.74 125.7 20.37 125.7 22.73V39.56C125.68 40.55 124.91 41.35 123.98 41.35H123.42C123.33 41.35 123.26 41.43 123.25 41.52V41.85C123.25 41.85 123.26 41.94 123.29 41.97C123.32 42.01 123.36 42.02 123.41 42.02H132.65C132.65 42.02 132.74 42 132.77 41.97C132.8 41.94 132.82 41.89 132.82 41.85V41.52C132.82 41.43 132.74 41.35 132.65 41.35H132.09C131.16 41.35 130.4 40.55 130.38 39.57V27.13L145.51 42.43C145.51 42.43 145.58 42.48 145.63 42.48H145.9C145.95 42.48 146 42.45 146.03 42.41C146.06 42.37 146.07 42.31 146.06 42.26C146.06 42.25 145.71 40.56 145.71 38.17V21.44C145.74 20.45 146.49 19.67 147.43 19.67H147.99C148.08 19.67 148.15 19.59 148.16 19.5V19.17C148.16 19.17 148.15 19.08 148.12 19.05C148.08 19.01 148.04 18.99 148 18.99" fill="white"/>
<path d="M171 32.21H170.74C170.66 32.21 170.59 32.27 170.58 32.36C169.68 38.4 167.47 40.75 162.72 40.76C158.26 40.63 155.48 36.66 155.48 30.4C155.48 24.14 158.4 20.25 163.11 20.25C166.69 20.25 169.03 22.21 170.03 26.07C170.05 26.15 170.11 26.2 170.19 26.2H170.44C170.44 26.2 170.53 26.18 170.56 26.15C170.59 26.11 170.61 26.07 170.61 26.02L170.55 20.46C170.55 20.4 170.51 20.34 170.46 20.31C169.26 19.65 166.66 18.53 162.8 18.53C155.01 18.53 150.17 23.1 150.17 30.46C150.17 37.82 154.82 42.25 162.31 42.44V45.41L164.81 44.53V42.31C168.52 41.76 170.44 39.76 171.42 38.05C171.44 38.02 171.44 37.98 171.44 37.95L171.15 32.38C171.15 32.29 171.07 32.21 170.99 32.21" fill="white"/>
<path d="M17.37 35.06H17.06C16.99 35.06 16.92 35.11 16.9 35.18C15.92 38.52 13.91 40.28 11.09 40.28H7.25V31.52H11.16C12.55 31.57 13.55 32.66 13.55 34.12V34.4C13.55 34.5 13.62 34.58 13.71 34.58H14.01C14.01 34.58 14.1 34.56 14.13 34.53C14.16 34.5 14.18 34.45 14.18 34.41V26.92C14.18 26.92 14.16 26.83 14.13 26.8C14.1 26.77 14.06 26.74 14.01 26.75H13.71C13.62 26.75 13.55 26.83 13.55 26.93V27.21C13.55 28.69 12.53 29.78 11.13 29.81H7.25V20.74H12.21C13.95 20.82 15.03 22.02 15.03 23.87V24.25C15.03 24.35 15.1 24.43 15.19 24.43H15.5C15.5 24.43 15.59 24.42 15.62 24.38C15.65 24.35 15.67 24.3 15.67 24.26V18.6C15.67 18.54 15.64 18.49 15.59 18.45C15.54 18.42 15.49 18.41 15.44 18.43C14.88 18.68 13.13 18.99 11.86 19.01H0.17C0.17 19.01 0.0799992 19.03 0.0499992 19.06C0.0199992 19.09 0 19.14 0 19.19V19.51C0 19.61 0.0800001 19.68 0.17 19.68H0.559999C1.5 19.68 2.28 20.46 2.35 21.44L2.33 39.99C2.33 39.99 2.27 40.63 2.71 41.35C3.1 41.99 4.25 42.03 4.25 42.03H15.97C16.05 42.03 16.11 41.97 16.13 41.89L17.54 35.28C17.54 35.23 17.54 35.17 17.51 35.13C17.48 35.09 17.43 35.06 17.38 35.06" fill="white"/>
<path d="M74.6 35.06H74.3C74.23 35.06 74.16 35.11 74.14 35.18C73.16 38.52 71.15 40.28 68.33 40.28H64.49V31.52H68.4C69.79 31.57 70.79 32.66 70.79 34.12V34.4C70.79 34.5 70.86 34.58 70.96 34.58H71.26C71.26 34.58 71.35 34.56 71.38 34.53C71.41 34.5 71.43 34.45 71.43 34.41V26.92C71.43 26.92 71.41 26.83 71.38 26.8C71.35 26.77 71.31 26.74 71.26 26.75H70.96C70.87 26.75 70.79 26.83 70.79 26.93V27.21C70.79 28.69 69.78 29.78 68.37 29.81H64.49V20.74H69.45C71.2 20.82 72.28 22.02 72.27 23.87V24.25C72.27 24.35 72.34 24.43 72.43 24.43H72.74C72.74 24.43 72.83 24.42 72.86 24.38C72.89 24.35 72.91 24.3 72.91 24.26V18.6C72.91 18.54 72.88 18.49 72.83 18.45C72.78 18.42 72.73 18.41 72.67 18.43C72.11 18.68 70.35 18.99 69.09 19.01H57.4C57.4 19.01 57.31 19.03 57.28 19.06C57.25 19.09 57.23 19.14 57.23 19.19V19.51C57.23 19.61 57.31 19.68 57.4 19.68H57.79C58.73 19.68 59.51 20.46 59.57 21.44L59.55 39.99C59.55 39.99 59.49 40.63 59.93 41.35C60.32 41.99 61.47 42.03 61.47 42.03H73.19C73.27 42.03 73.33 41.97 73.35 41.89L74.76 35.28C74.77 35.23 74.76 35.17 74.73 35.13C74.7 35.09 74.65 35.06 74.6 35.06Z" fill="white"/>
<path d="M196.12 41.34H195.87C194.89 41.34 193.97 40.67 193.42 39.56L184.35 18.44C184.32 18.38 184.27 18.34 184.2 18.34H183.92C183.84 18.34 183.76 18.41 183.75 18.5C183.69 19.29 182.75 21.58 182.27 22.69L175.22 39.61C174.58 40.89 173.55 41.34 172.8 41.34H172.53C172.44 41.34 172.36 41.42 172.36 41.52V41.85C172.36 41.94 172.43 42.03 172.53 42.03H179.07C179.16 42.03 179.24 41.95 179.24 41.85V41.53C179.24 41.43 179.17 41.35 179.07 41.35H178.8C178.41 41.35 178.02 41.15 177.82 40.83C177.61 40.49 177.59 40.06 177.79 39.57L179.2 35.95L180.09 33.7L182.86 26.65L185.6 33.96H181.67C181.67 33.96 181.05 33.93 180.75 34.67C180.7 34.8 180.4 35.67 180.4 35.67H186.25L187.71 39.56C187.89 40.06 187.87 40.5 187.65 40.84C187.45 41.16 187.08 41.35 186.69 41.35H186.42C186.33 41.35 186.26 41.43 186.26 41.53V41.85C186.26 41.95 186.33 42.03 186.42 42.03H196.14C196.23 42.03 196.31 41.95 196.31 41.85V41.53C196.31 41.43 196.24 41.35 196.14 41.35" fill="white"/>
<path d="M121.48 41.34H121.22C120.24 41.34 119.32 40.67 118.77 39.56L109.7 18.44C109.67 18.38 109.62 18.34 109.55 18.34H109.28C109.2 18.34 109.12 18.41 109.12 18.5C109.06 19.29 108.12 21.58 107.63 22.69L100.58 39.61C100.26 40.25 99.8499 40.67 99.4199 40.95C99.4099 40.95 99.3999 40.96 99.3899 40.97C99.2899 41.03 99.1999 41.08 99.0999 41.13C99.0999 41.13 99.0799 41.13 99.0799 41.14C98.9999 41.17 98.9099 41.21 98.8299 41.23C97.8899 41 97.1699 40.36 96.1299 38.96C94.9699 37.42 93.0899 34.25 93.0699 34.22C92.7799 33.74 91.8299 32.27 90.4399 31.53C93.5599 30.88 94.9799 27.91 94.9799 25.29C94.9799 21.35 92.2099 19 87.5599 19H77.0899C77.0899 19 76.9999 19.02 76.9699 19.06C76.9399 19.09 76.9199 19.14 76.9199 19.18V19.5C76.9199 19.59 76.9999 19.67 77.0899 19.67H77.4799C78.4499 19.67 79.2399 20.5 79.2599 21.53V39.5C79.2299 40.54 78.4499 41.35 77.4699 41.35H77.0899C76.9999 41.35 76.9299 41.43 76.9199 41.52V41.84C76.9199 41.84 76.9199 41.93 76.9599 41.96C76.9899 41.99 77.0399 42.01 77.0799 42.01H86.3499C86.3499 42.01 86.4399 41.99 86.4699 41.96C86.4999 41.93 86.5199 41.88 86.5199 41.84V41.52C86.5199 41.42 86.4399 41.35 86.3499 41.35H85.9699C84.9999 41.35 84.1899 40.51 84.1799 39.49V20.77C84.3099 20.77 84.4699 20.77 84.6599 20.77C85.1599 20.77 85.7999 20.76 86.3199 20.78C88.4299 20.84 89.6499 22.38 89.7599 25.15C89.7899 25.83 89.7099 26.34 89.6499 26.68C89.0799 29.63 87.3299 30.27 85.9599 30.28H85.0299C84.9399 30.28 84.8699 30.36 84.8699 30.45V30.76C84.8699 30.85 84.9299 30.92 85.0099 30.93C85.7599 31.07 86.3999 31.75 86.9499 33.01L87.1499 33.46C87.6999 34.73 88.8499 37.36 89.4999 38.57C90.8099 40.98 92.9899 42.02 96.8099 42.02H97.8899H104.43C104.52 42.02 104.59 41.94 104.59 41.84V41.52C104.59 41.42 104.52 41.34 104.43 41.34H104.16C103.77 41.34 103.38 41.14 103.18 40.82C102.97 40.48 102.95 40.05 103.15 39.56L104.56 35.94L105.45 33.69L108.22 26.64L110.96 33.95H107.02C107.02 33.95 106.4 33.92 106.1 34.66C106.05 34.79 105.75 35.66 105.75 35.66H111.6L113.06 39.55C113.24 40.05 113.22 40.49 113 40.83C112.8 41.15 112.43 41.34 112.04 41.34H111.77C111.68 41.34 111.61 41.42 111.61 41.52V41.84C111.61 41.94 111.69 42.02 111.77 42.02H121.48C121.57 42.02 121.65 41.94 121.65 41.84V41.52C121.65 41.42 121.57 41.34 121.48 41.34Z" fill="white"/>
<path d="M159.89 3.58001C159.89 4.40001 159.23 5.06001 158.41 5.06001C157.59 5.06001 156.93 4.40001 156.93 3.58001C156.93 2.76001 157.59 2.10001 158.41 2.10001C159.23 2.10001 159.89 2.76001 159.89 3.58001Z" fill="white"/>
<path d="M39.3599 3.58001C39.3599 4.40001 38.6999 5.06001 37.8799 5.06001C37.0599 5.06001 36.3999 4.40001 36.3999 3.58001C36.3999 2.76001 37.0599 2.10001 37.8799 2.10001C38.6999 2.10001 39.3599 2.76001 39.3599 3.58001Z" fill="white"/>
<path d="M47.97 0.100006H51.99V0.930008H48.88V3.04001H51.6V3.84H48.88V6.23H52.07V7.06001H47.97V0.100006Z" fill="white"/>
<path d="M60.8498 2.99001C60.5298 2.54001 60.2298 2.08001 59.9198 1.62001H59.8998C59.9098 2.04001 59.9198 2.57001 59.9198 3.14001V7.06001H59.0398V0.100006H59.9198L62.3898 3.64001L64.8598 0.100006H65.7298V7.06001H64.8198V3.14001C64.8198 2.57001 64.8198 2.05 64.8398 1.63H64.8198C64.5098 2.08 64.1998 2.54001 63.8898 2.99001L62.3698 5.16L60.8498 2.99001Z" fill="white"/>
<path d="M73.0498 0.100006H74.9098C75.7598 0.100006 76.2898 0.180009 76.7698 0.470009C77.2998 0.790009 77.5898 1.27001 77.5898 1.89001C77.5898 2.69001 77.1098 3.16001 76.5298 3.36001V3.38C77.3498 3.57 77.8698 4.11001 77.8698 5.00001C77.8698 5.66001 77.5798 6.24001 77.0698 6.60001C76.5798 6.95001 75.9098 7.06001 74.8998 7.06001H73.0598V0.100006H73.0498ZM75.3398 3.14001C76.0398 3.14001 76.6798 2.81 76.6798 2.05C76.6798 1.62 76.4798 1.34001 76.1898 1.17001C75.8598 0.980006 75.4898 0.930008 74.7998 0.930008H73.9698V3.14001H75.3398ZM74.9598 6.23C75.7498 6.23 76.1898 6.15001 76.5098 5.93001C76.7298 5.77001 76.9598 5.49 76.9598 5.02C76.9598 4.25 76.3498 3.84 75.3098 3.84H73.9598V6.23H74.9498H74.9598Z" fill="white"/>
<path d="M84.8298 3.78999V0.109985H85.7398V3.69998C85.7398 4.55998 85.7998 5.09998 86.0098 5.49998C86.2498 5.94998 86.7498 6.33998 87.6598 6.33998C88.5098 6.33998 89.0198 6.00998 89.2898 5.49998C89.5098 5.08998 89.5498 4.52998 89.5498 3.73998V0.119987H90.4298V3.69998C90.4298 4.70998 90.3698 5.48998 89.9698 6.09998C89.5298 6.76998 88.6898 7.18999 87.6198 7.18999C86.5498 7.18999 85.7198 6.76998 85.2798 6.09998C84.8798 5.47998 84.8198 4.66998 84.8198 3.79998" fill="white"/>
<path d="M99.4399 0.930008H97.1099V0.100006H102.69V0.930008H100.36V7.06001H99.4399V0.930008Z" fill="white"/>
<path d="M110.34 0.100006H109.43V7.06001H110.34V0.100006Z" fill="white"/>
<path d="M117.66 0.100006H119.57C120.49 0.100006 121.33 0.240006 122.03 0.670006C123.03 1.28001 123.59 2.34 123.59 3.55C123.59 4.76 123.09 5.73001 122.21 6.36001C121.47 6.88001 120.55 7.06001 119.35 7.06001H117.67V0.100006H117.66ZM119.49 6.23C120.33 6.23 121 6.13 121.56 5.77C122.22 5.35 122.68 4.56001 122.68 3.58001C122.68 2.60001 122.19 1.82 121.56 1.41C120.96 1.01 120.22 0.930008 119.47 0.930008H118.57V6.24001H119.48L119.49 6.23Z" fill="white"/>
<path d="M133.64 0C135.66 0 137.18 1.56 137.18 3.58C137.18 5.6 135.66 7.17 133.64 7.17C131.62 7.17 130.1 5.6 130.1 3.58C130.1 1.56 131.62 0 133.64 0ZM133.64 6.32C135.16 6.32 136.26 5.11 136.26 3.58C136.26 2.05 135.15 0.839996 133.64 0.839996C132.13 0.839996 131.02 2.05 131.02 3.58C131.02 5.11 132.12 6.32 133.64 6.32Z" fill="white"/>
<path d="M143.94 5.64C144.58 6.12 145.4 6.33 146.02 6.33C146.85 6.33 147.43 5.96 147.43 5.2C147.43 4.3 146.61 4.15 145.7 3.89C144.72 3.61 143.77 3.21 143.77 1.94C143.77 0.670002 144.66 0 146.02 0C146.67 0 147.46 0.159997 148.02 0.519997V1.48C147.38 1.03 146.6 0.830002 146 0.830002C145.22 0.830002 144.67 1.17 144.67 1.88C144.67 2.75 145.48 2.89 146.32 3.13C147.33 3.42 148.33 3.82 148.33 5.15C148.33 6.48 147.4 7.17 146 7.17C145.33 7.17 144.53 6.99 143.93 6.64V5.64H143.94Z" fill="white"/>
</svg>
