<?xml version="1.0" encoding="UTF-8"?>
<svg id="Camada_1" data-name="Camada 1" xmlns="http://www.w3.org/2000/svg" viewBox="0 0 48 48">
  <defs>
    <style>
      .cls-1 {
        fill: #fe5f2d;
        stroke-width: 0px;
      }
    </style>
  </defs>
  <path class="cls-1"
    d="M48,20.57l-13.72-13.72c-2.68,0-4.18,0-6.86,0h0s13.98,13.99,13.98,13.99v.71h-24.27v4.87h24.27v.73l-13.98,13.98h0c2.68,0,4.18,0,6.86,0l13.72-13.71h0c0-2.68,0-4.18,0-6.86Z" />
  <path class="cls-1"
    d="M4.87,25.44v-2.88l15.7-15.7h0c-2.68,0-4.18,0-6.86,0L0,20.57c0,.34,0,6.5,0,6.86h0s13.72,13.71,13.72,13.71c2.68,0,4.18,0,6.86,0h0s-15.7-15.7-15.7-15.7Z" />
</svg>